<?xml version="1.0" encoding="UTF-8"?>
<!DOCTYPE svg PUBLIC "-//W3C//DTD SVG 1.1//EN" "http://www.w3.org/Graphics/SVG/1.1/DTD/svg11.dtd">
<!-- Creator: CorelDRAW -->
<svg xmlns="http://www.w3.org/2000/svg" xml:space="preserve" width="1000mm" height="1000mm" version="1.1" style="shape-rendering:geometricPrecision; text-rendering:geometricPrecision; image-rendering:optimizeQuality; fill-rule:evenodd; clip-rule:evenodd"
viewBox="0 0 100000 100000"
 xmlns:xlink="http://www.w3.org/1999/xlink"
 xmlns:xodm="http://www.corel.com/coreldraw/odm/2003">
 <defs>
  <style type="text/css">
   <![CDATA[
    .str1 {stroke:#0A1413;stroke-width:352.78;stroke-miterlimit:22.9256}
    .str0 {stroke:#569A8A;stroke-width:20;stroke-miterlimit:22.9256}
    .fil14 {fill:none}
    .fil6 {fill:#000202}
    .fil0 {fill:#0A1413}
    .fil12 {fill:#0C1E60}
    .fil10 {fill:#13FC37}
    .fil4 {fill:#1A1403}
    .fil11 {fill:#27E1EC}
    .fil5 {fill:#568285}
    .fil2 {fill:#569A8A}
    .fil13 {fill:#569A8A}
    .fil7 {fill:#63ACB5}
    .fil1 {fill:#63BCA5}
    .fil3 {fill:#D8FEE8}
    .fil9 {fill:#F10653}
    .fil8 {fill:#FAE43D}
   ]]>
  </style>
 </defs>
 <g id="Camada_x0020_1">
  <metadata id="CorelCorpID_0Corel-Layer"/>
  <path class="fil0" d="M59991.63 83043.61l432.99 46.03c599.65,-401.4 1354.47,-4999.55 1511.36,-5933.6 590.36,-3514.8 -758.56,-4024.29 -620.08,-4700.47 520.75,-136.83 1725.96,-206.48 2390.24,-338.9 948.16,-188.96 1498.67,-524.12 2495.53,-575.24 166.51,612.52 440.06,1185.48 559.97,1803.24 135.22,696.55 271.53,1441.37 348.74,2109.89 267.15,2312.77 -116.51,2110.4 -443.2,4103.74 -542.01,3306.93 -1404.36,3694.15 -2490.59,5937.04 -177.96,367.53 -144.65,640.22 -266.32,1065.01l-1129.13 54.83c110.52,249.19 136.91,321.76 171.01,692.84 1604.36,221.79 2159.02,-414.09 3543.09,-186.05 3370.15,555.3 2381.64,3349 1062.35,4128.56 -963.51,569.33 -2321.12,239.83 -3364.64,-5.01 -2547.96,-597.78 -4966.16,-144.96 -6556.83,-1381.38 -1467.08,-1140.31 2930.57,-6377.4 2788.5,-6774.5l-432.99 -46.03c-610.01,347.99 -4173.13,5517.19 -2700.69,7172.15 319.84,359.52 2117.48,1145.25 2695.04,1225.09 1259.03,174.07 2250.42,508.36 3430.33,727.79 926.87,172.39 2853.14,63.66 3770.76,-70.81 2312.36,-338.9 2858.45,-3948.35 1015.68,-5008.94 -1246.27,-717.28 -2041.88,-420.82 -3490.58,-597.18 33.42,-936.71 975.03,-2425.05 1425.95,-3276.5 1139.03,-2150.79 1875.96,-5398.85 1531.86,-7884.01 -173.84,-1255.66 -771.24,-2745.12 -779.97,-4037.39 685.96,-235.71 1835.89,-427.11 2638.69,-655.19 1802.53,-512.18 4017.81,-572.73 5738.68,-1135.93 1028.78,-336.65 1411.54,-663.05 1679.96,-1720.5 145.97,-574.94 372.85,-2346.64 386.43,-2909.05 27.29,-1127.85 -48.35,-2270.48 56.82,-3179.42 59.13,-511.24 208.87,-871.51 150.3,-1390.21 -86.49,-765.44 -39.86,-853.73 -6.55,-1551.59 37.99,-796.13 -660.35,-2049.14 -143.53,-2821.99 341.37,-251.51 1150.72,-90.28 1688.12,-130.4 2198.29,-164 4483.25,-1969.57 5703.54,-3570.45 561.4,-736.52 1191.51,-1385.08 1683.94,-2141.21 1472.73,-2261.61 2468.84,-5270.66 3263.93,-7832.13 223.06,-718.67 353.3,-512.67 409.44,-1409.53 154.35,-2466.37 -112.2,-1454.58 -1278.34,-2265.83 -356.75,-248.22 -489.54,-611.4 -1167.33,-482.47 -619.41,117.78 -559.68,510.27 -913.58,676.49 -1269.55,596.12 -850.75,-808.9 -1897.34,3098.72 -135.52,505.97 -209.07,775.41 -393.5,1199.71 -240.43,553.2 -354.1,473.63 -550.14,1168.94 -404.24,1433.89 -1629.17,2942.66 -2507.46,4098.81 -241.18,317.45 -490.25,478.68 -790.82,794.94 -902.88,950.18 -2064.6,1822.44 -3562.26,1227.62 -579.81,-1474.9 -422.73,-4250.38 -540.4,-6096.1 -47.31,-742.02 -384.82,-1794.01 -514.73,-2767.32 -68.97,-516.97 -173.96,-899.92 -238.93,-1349.68 -103.6,-716.71 -202.63,-774.31 -367.19,-1356.03l-1265.43 -5295c-746.88,-4617.31 -1357.53,-9223.99 -3025.52,-13619.92 -1156.11,-3046.97 -3030.43,-9489.27 -5268.53,-11508.65 -268.24,-242.04 -1620.42,-1134.81 -2024.03,-1274.38 -864.7,-299.11 -1768.4,-549.08 -2632.21,-637.89 -1061.07,-109.1 -2108.12,-14.04 -3135.18,-207.61 -1238.93,-233.5 -7769.89,-644.33 -9233.08,-649.24 -3127.48,-10.4 -6362.06,-402.07 -9585.91,-65.08 -889.33,92.93 -1953.06,352.29 -2819.49,395.71 -1094.5,54.87 -2229.5,25.75 -3300.94,95.81 -2435.16,159.25 -5043,453.2 -7392.23,914.18 -1213.18,238.07 -2652.94,713.43 -3500.8,1482.2 -756.87,686.29 -796.62,1133.47 -1517.19,1916.58 -687.08,746.77 -3020.47,4501.74 -3956.02,5936.59 -320.19,491.08 -274.23,610.65 -505.04,1077.48 -237.1,479.47 -427.41,502 -728.13,1001.16l-1884.5 2992.02c-695.16,932.86 -2322.02,4270.63 -2881.88,5573.22 -325.84,758.04 -629.7,1602.31 -903.78,2400.95 -223.92,652.53 361.77,1877.35 617.28,2473.44 343.24,800.86 429.62,1791.42 765.71,2537.67 1042.25,2314.46 2001.94,4817.06 2817.65,7215.42 520.53,1530.56 1373.45,3369.21 1737.01,5011.83 820.35,3706.68 1812.38,7117.14 2528.46,10684.14 401.02,1997.87 747.89,3353.23 1416.4,5169.09 603.02,1637.98 538.68,4033.53 950.86,5791.61 135.56,578.16 215.43,744.3 206.67,1413.22 -13.14,1002.02 -57.6,795.58 -315.69,1436.62l-624.28 2683.18c-164.37,1010.22 -559.3,1634.08 -624.64,2737.34 -124,2094.2 -120.63,3766.31 2441.78,4078.03 1182.79,143.87 1977.43,369.1 2532.42,-464.5 630.16,-946.4 339.91,-4297.09 1075.08,-5650.95 1887.76,-149.67 5424.3,296.83 7478.57,487.03 1015.53,94.01 7550.09,123.95 7805.67,242.93 718.86,334.6 892.93,2219.7 856.02,3171.04 -123.92,3195.66 -1866.01,6428.72 -3159.47,9073.35 -829.71,1696.47 -2750.21,3514.16 -1129.49,5553.72 662.45,833.68 1553.68,934.95 2859.61,1139 1105.35,172.72 2284.14,517.01 3591.86,507.21 2158.35,-16.25 5530.51,-162.32 5552.93,-2540.55 14.94,-1583.93 -147.83,-2294.47 -1316.18,-2768.29 -1170.43,-474.68 -2604.88,-119.54 -3697.47,-427.94 13.66,-378.79 1573.18,-3583.96 1836.96,-4474.79 210.83,-711.93 449.65,-980.54 646.4,-1588.31 944.04,-2916.27 443.5,-4968.96 518.73,-7937.34 335.04,-125.56 2298.25,-553.61 2665.33,-537.59 801.68,34.92 312.85,342.75 1338.11,65.94 483.85,-130.65 903.93,-226.58 1378.16,-342 796.32,-193.79 584.97,-340.28 1126.53,-487.97 362.44,-98.84 1008.43,-118 1425.58,-178.18 686.4,-99 1822.64,-390.81 2671.51,-558.78 2263.74,-448 3108.38,-1063.03 3672.7,1964.78 376.4,2019.57 -1456.94,6302.29 -1513.01,8242.07z"/>
  <path class="fil1" d="M43555.37 74838.74c1171.18,-128.19 7128.66,-1006.85 7996.28,-1458.14 577.35,-300.31 606.09,-172.91 1348.86,-267.75l4839.47 -812.23c3527.07,-890 2324.41,-276.17 5045.09,-651.37 1510.84,-208.39 7165.54,-1548.67 9240.91,-1972.41 649.16,-132.57 937.35,-106.59 1624.39,-182.42 530.18,-58.54 1088.14,-309.37 1520.79,-476.63 1585.95,-613.23 823.83,-909.31 1283.88,-2384.48 284.96,-913.65 387.4,-274.3 397.8,-1496.95 5.02,-593.09 77.96,-1162.16 87.43,-1853.21 16.99,-1238.25 43.53,-2451.92 53.82,-3697.81 10.67,-1289.01 -280.17,-2503.61 -261.57,-3696.7 44.01,-2824.76 -147.54,-4477.18 -417.8,-7126.75 -111.53,-1093.46 -182.08,-2458.25 -225.53,-3570.68 -47.6,-1219.32 -362.81,-2141.17 -538.49,-3190.2 -374.83,-2238.07 -952.77,-4079.68 -1379.17,-6194.69l-2472.17 -12654.17 -1911.04 -5649.53c-945.43,-2148.24 -2061.78,-5615.29 -3488.41,-7732.24 -520.64,-772.56 -1297.8,-1298.78 -2051.87,-1772.37 -1852.65,-1163.44 -4197.09,-798.27 -6525.8,-1140.2 -2368.05,-347.7 -11616.15,-871.37 -14166.87,-871.07 -2116.29,0.26 -5128.41,63.33 -6974.7,543.21 -1403.46,364.8 -5284.4,526.48 -6883.3,608.89 -615.33,31.7 -1271.45,-75.6 -1835.84,31.29 -4439.09,840.9 -2634.46,469.63 -1545.19,3505.18 158.5,441.67 343.68,791.46 541.59,1311.73 846.14,2224.44 1138.44,3844 1783.42,5750.66l1146.33 4500.01c898.8,3258.35 2214.46,6928.4 3131.22,10246.82 249.15,901.76 493.17,2053.18 797.41,2857.22 172.35,455.52 388.78,708.14 575.17,1314 483.96,1573 720.38,3139.27 1106.25,4548.26 823.61,3007.15 1869.94,5953.55 2681.01,8838.16 289.31,1029.01 325.84,2060.63 627.91,3050.26 606.23,1986.3 1614.73,6803.02 2305.32,9042.78l780.76 2897.82c258.88,1206.48 172.72,2226.24 512.29,3329.54 259.7,843.85 247.16,1996.96 426.74,3360.71 74.93,569.15 126.95,1916.05 404.13,2417.9l361.5 593.66c14.3,25.08 34.58,71.86 57.98,103.9z"/>
  <path class="fil2" d="M21255.37 67665.46c593.17,-280.17 1155.92,-1602.27 1433.77,-2276.95 1176.51,-2856.88 1757.74,-3046 3666.72,-5567.84l890.56 -1090.38c211.57,-695.57 -370.18,-649.42 892.44,-2544.74 1567.27,-2352.52 6388.74,-2795.42 7753.43,-149.63 329.42,638.68 718.85,2180.24 600.35,2978.03 -65.01,437.7 -857.06,2115.98 -1153.67,2518.58 -383.13,520.08 -1285.6,1283.02 -2123.99,1598.33 -369.81,139.08 -1117.33,395.98 -1419.59,455.04 -2356.93,460.57 -1287.21,-1728.1 -4081.74,3128.25 -877.05,1524.2 -1146.41,2213.74 -1771.39,3923.09 -183.24,501.1 -668.81,2590.06 -534.64,3129.04l8645.26 731.69c1619.97,119.54 2969.05,99.97 4618.29,72.68 3240.2,-53.63 3277.77,716.91 3281.97,-1121.93 2.62,-1139.64 -208.92,-3628.61 -469.52,-4690.52 -109.29,-445.37 -129.61,-351.81 -213.56,-970.58 -51.83,-381.97 -128.78,-716.72 -223.77,-1090.27 -425.65,-1673.98 -765.89,-4062.28 -1270.14,-5162.73 -268.76,-586.55 -152.78,-2214.67 -499.23,-3493.01 -129.5,-477.79 -250.65,-348.18 -370.64,-961.3l-2225.23 -9507.84c-440.32,-1293.57 -585.05,-1389.38 -958.31,-2877.76 -103.18,-411.32 -237.28,-578.61 -369.32,-918.97 -128.94,-332.35 -144.88,-658.71 -233.88,-1077.06 -127.36,-598.71 -381.9,-777.24 -826.38,-3170.22l-1472.73 -4852.87c-84.4,-276.17 -189.79,-715.56 -319.81,-1015.45 -463.83,-1069.69 -334.29,-1472.36 -540.81,-2127.85 -121.19,-384.71 -241.74,-336.65 -356.23,-767.69l-1841.72 -6090.68c-113.03,-263.64 -348.44,-794.23 -399.57,-936.42 -486.77,-1354.16 -674.31,-2961.07 -979.97,-4182.15 -328.16,-1310.9 -795.92,-2817.69 -1164.75,-4104.19 -292.68,-1020.88 -1563.8,-4825.18 -2130.73,-5660.39 -560.35,-825.44 -1273.25,-3212.39 -3926.57,994.31 -606.76,961.98 -1260.67,1946.97 -2036.82,3106.44 -2029.61,3032 -4964.93,7904.63 -6847.04,11355.62l-1590.14 3522.77c-412.18,1480.15 512.07,2867.7 929.71,4120.44 133.21,399.6 198.93,652.68 341.56,971.96 172.5,386.21 319.1,504.93 473.59,887.31 456.42,1129.57 1127.7,2576.97 1361.73,3748.34 415.7,2080.51 -60.18,320.82 639.32,2032 1040.64,2545.75 1852.09,5202.59 2515.66,7915.9 513.68,2100.45 914.67,4246.93 1500.73,6280.65 224.78,780.16 136.64,1708.23 941.5,4316.18 232.38,752.98 202.18,1307.16 520.34,2023.58 279.65,629.66 455.07,1297.57 673.01,1966.84l671.95 4632.35z"/>
  <path class="fil0" d="M70197.25 36717.25c132.79,-1043.38 -487.37,-6770.27 -732.48,-7812.83 -274.26,-1166.58 -467.53,-2219.8 -793.78,-3440.95 -410.68,-1537.11 -1958.56,-6701.41 -2621.28,-8026.27 -709.12,-1417.61 -1471.27,-5130.05 -2647.02,-5948.83 -952.92,-663.58 -4414.12,-598.75 -5774.24,-691.57 -679.22,-46.34 -1380.48,-11.83 -2046.63,-99.07l-5815.45 -172.8c-1484.82,-68.71 -1771.85,-315.32 -4085.85,-136.12 -666.27,51.61 -1172.99,142.41 -1926.2,124.71 -607.2,-14.26 -1172.19,-122.99 -1909.2,-54.76 -2887.57,267.41 -5224.59,263.71 -7933.9,482.77 -378.19,30.57 -692.09,3.81 -1013.21,69.98 -197.08,40.61 -541.33,170.63 -817.28,240.99 -610.58,155.66 -1283.47,278.87 -1487.03,827.8 -472.02,1272.84 1324.04,4366.48 1502,4818.22 554.18,1406.82 1012.61,3490.1 1571.88,4917.32 1588.87,4054.9 1837.53,6668.92 2958.98,9977.01 796.66,2350.09 547.77,5087.46 1952.95,6628.28 644.52,706.68 2194.28,458.92 3788.65,392.08 1526.03,-64 2482.09,-382.8 3839.92,-451.4l11905.79 -879.6c1319.51,-124.52 6517.08,83.72 8547.21,55.73 1588.94,-21.9 1495.82,34.54 2674.2,-480.45 414.27,-181.03 493.62,-98.43 861.97,-340.24z"/>
  <path class="fil3" d="M39535.01 11134.01c-1715.26,225.35 -6329.8,186.01 -7547.1,709.65 -451.36,194.16 -957.07,390.58 -846.96,1075.63 275.54,1714.85 1211.2,2969.87 1761.29,4526.85 700.89,1983.95 1228.6,4291.55 2058.5,6105.09 633.97,1385.35 2033.61,7451.66 2751.78,9635.61 276.44,840.6 283.14,4119.54 1321.38,4777.87 754.52,478.42 2757.03,111.16 3462.18,105.02 898.24,-7.86 1102.14,45.77 1970.96,-143.83 890.41,-194.32 5589.16,-338.86 7621.8,-606.57 2527.3,-332.84 5166.84,-389.01 7838.53,-489.84 2530.15,-95.51 5660.95,342.04 8164.22,20.62 1791.91,-230.1 1603.51,-971.48 1404.02,-2485.01 -552.08,-4189.37 -36.9,-2338.78 -1095.7,-7111.97 -587.03,-2646.66 -1812.45,-7044.2 -2965.38,-9477.26 -613.86,-1295.52 -1310.97,-5136.64 -2405.55,-5784.3 -1527.56,-903.89 -9004.78,-603.92 -11553.68,-777.84 -3784.19,-258.24 -3949.43,-266.14 -7919.93,-171.38 -1309.78,31.26 -2752.09,-74.92 -4020.36,91.66z"/>
  <path class="fil4" d="M48893.32 48816.64c8.42,976.05 409.19,1651 387.14,2731.09 -495.79,49.59 -1398.25,162.84 -1888.65,253.53 -592.58,109.54 -353.72,183.16 -667.62,404.54 -380.47,268.35 -368.09,128.97 -759.49,275.61 -40.98,338.97 851.23,5600.47 1231.33,5846.02 429.1,277.18 2183.5,-545.15 2933.57,-410.53 390.99,70.17 200.68,270.93 306.89,850.85 79.38,433.48 134.93,323.52 233.92,830.72 447.66,2292.98 -461.1,3082.56 3226.46,1897.45 877.09,-281.89 3084.14,-392.38 3654.11,-722.29 175,-1090.24 -452.57,-3224.82 -309.41,-3986.04l2488.56 -281.82c19.05,-1104.31 -149.55,-1777.87 -424.34,-2613.94 -282.53,-859.61 -131.44,-1807.63 -418.31,-2624.54 -939.9,-818.25 -1461.62,-204.76 -2655.42,-410.6 -396.57,-1087.24 -196.9,-1981.85 -925.82,-2994.87 -361.46,-41.81 -2776.26,210.75 -3408.02,284.92 -1069.46,125.61 -1750.88,-38.25 -3004.9,669.9z"/>
  <path class="fil5" d="M60255.49 83193.16l-723.04 1307.05c-287.14,900.93 -3363.41,4223.62 -1896.33,5363.93 1590.67,1236.42 4008.87,783.6 6556.83,1381.38 1043.52,244.84 2401.13,574.34 3364.64,5.01 1319.29,-779.56 2307.8,-3573.26 -1062.35,-4128.56 -1384.07,-228.04 -1938.73,407.84 -3543.09,186.05 -34.1,-371.08 -60.49,-443.65 -171.01,-692.84l1129.13 -54.83c121.67,-424.79 88.36,-697.48 266.32,-1065.01 1086.23,-2242.89 1948.58,-2630.11 2490.59,-5937.04 326.69,-1993.34 710.35,-1790.97 443.2,-4103.74 -77.21,-668.52 -213.52,-1413.34 -348.74,-2109.89 -119.91,-617.76 -393.46,-1190.72 -559.97,-1803.24 -996.86,51.12 -1547.37,386.28 -2495.53,575.24 -664.28,132.42 -1869.49,202.07 -2390.24,338.9 -138.48,676.18 1210.44,1185.67 620.08,4700.47 -156.89,934.05 -643.25,4072.34 -1242.9,4473.74 -246.71,600.25 -238.63,1175.64 -437.59,1563.38z"/>
  <path class="fil5" d="M41695.15 75575.67c859.02,2773.12 173.4,5310.63 -907.29,8030.08 -440.47,1108.39 -1706.31,3981.7 -2380.18,5014.18 -336.68,515.85 -626.78,887.46 -941.31,1571.54 -737.34,1603.62 -399.68,2516.9 1125.23,3001.83 2361.2,750.93 6180.76,1236.16 8510.19,315.17 698.98,-276.35 1230.4,-460.23 1413.67,-1096.37 148.14,-514.2 41.66,-866.42 -37.09,-1293.5 -142.48,-773.04 336.47,193.2 30.99,-575.77 -456.49,-1149.1 -3516.85,-855.68 -4693.99,-979.41 -847.38,-89.11 -881.14,-164.34 -1158.28,-798.95 796.44,-533.14 382.2,215.24 1303.87,-916.53 339.46,-416.86 1088.14,-2370.23 1411.46,-3087.62 785.55,-1742.99 1246.31,-3219.13 1419.97,-5308.27 97.45,-1172.47 243.34,-3380.63 -147.54,-4338.71 -599.12,-90.99 -1708.33,172.05 -2345.93,276.95 -1055.02,173.55 -1601.78,105.32 -2603.77,185.38z"/>
  <path class="fil6" d="M46532.2 63113.83c-91.62,212.33 -197.43,373.03 -363.19,564.51l888.8 4300.72c351.81,1384.11 152.4,3153.33 722.6,4393.8 2005.31,-130.51 3221.3,-216.37 5023.16,-782.63 3462.48,-1088.18 1866.2,-485.23 4840.56,-950.56 201.73,-541.86 -402.67,-3195.03 -530.82,-4138.89 -165.01,-1215.16 -159.7,-3564.27 -679.1,-4336.94 -1229.69,-175.76 -6781.8,1026.98 -9902.01,949.99z"/>
  <path class="fil7" d="M20614.63 79674.96l73.32 -2691.9c162.62,-694.9 26.16,-423.19 421.87,-525.21 309.26,536.21 18.04,1573.93 30.58,2277.59 29.15,1633.29 579.66,1520.26 1254.35,1538 -300.09,-1839.25 -389.58,-1253.15 -110.07,-3168.3 94.24,-645.87 -148.96,-595.9 277.51,-940.83 127.03,57.94 356.19,-47.08 331.79,837.16 -24.36,881.95 -476.93,2345.74 328.38,3123.69 1033.35,-153.9 940.45,-2223.66 1024.1,-3113.17 67.07,-712.98 213.03,-1103.71 250.54,-1839.59 149.66,-2936.49 771.99,-5807.48 2268.27,-8357.79l1182.15 -1971.03c461.1,-539.96 183.88,-285.79 400.84,-666.76 418.99,-735.69 1384.71,-1653.24 2022,-2208.2 1193.05,-1038.88 3569.11,-2664.24 1339.8,-4254.95 -1006.59,-718.21 -1711.82,108.58 -2375.69,313.56 -1620.3,500.32 -4523.55,4319.02 -5172.57,5396.05 -893.85,1483.32 -1841.31,4416.93 -2400.35,6042.43 -649.08,1887.42 -790.41,3062.24 -1299.07,5045.74 -154.27,601.48 -391.11,986.3 -459.52,1590.96 -72.61,641.94 -38.74,1445.26 -41.02,2105.17 -3.07,893.22 -50.12,1211.04 652.79,1467.38z"/>
  <path class="fil0" d="M21478.73 47702.42l754.9 2427.59c1748.41,550.17 2794.07,-1006.02 3912.08,-1271.75 -120.93,681.8 -322.69,520.49 -322.69,1388.94 481.83,132.67 874.99,41.99 1198.99,359.93 -196.94,324.75 -1270.18,647.51 -2084.21,1181.25 -1553.46,1018.68 -1219.31,155.7 -2099.29,1327.37 104.87,379.58 477.75,1217.79 670.46,1813.43 232.61,718.89 291.44,1461.13 523.67,2139.22 683.82,-25.48 729.93,-358.02 1144.25,-680.11 500.05,-388.71 790.63,-405.74 1244.43,-743.74 378.19,-281.71 593.24,-550.62 1091.99,-881.21l3577.86 -2225.75c1050.19,-638.54 1385.42,-1073.36 2512.11,-1418.88 -7,-881.13 -891.05,-3156.78 -1342.12,-3712.94 -952.46,-67.29 -543.77,14.83 -1153.59,247.09l-869.76 130.44c-279.95,-29.76 -182.49,-12.92 -328,-80.88 425.54,-1058.24 1305.36,-941.95 2141.24,-1584.42 -33.05,-414.8 -1011.34,-2826.64 -1302.85,-3181.33 -699.24,53.19 -1785.66,769.68 -2395.34,1045.55 -1457.31,659.42 -753.66,449.12 -2456.11,1097.94 -93.31,35.56 -3876.16,1836.94 -4204.72,2278.27l-213.3 343.99z"/>
  <path class="fil8" d="M51474.22 48890.71c-97.91,993.52 314.79,1933.27 129.94,2904.71 -1090.46,491.82 -1798.08,-43.87 -4037.35,1056.25 22.01,648.04 791.39,3837.9 1005.77,4417.3 1021.26,78.49 2165.05,-464.65 3036.75,-539.13 1261.2,2035.15 209.47,4666.98 3089.11,3984.8l2037.24 -469.14c364.42,-1423.44 -462.37,-3001.79 -380.89,-4081.55l2459.52 -278.07c271.6,-807.22 105.95,-1134.55 -44.76,-1866.73 -169.58,-823.87 43.41,-1051.2 -42.71,-1678.54 -179.35,-1306.45 -1995.28,-569.52 -3102.47,-728.06 -154.91,-365.36 -193.42,-919.57 -293.61,-1401.73 -111.91,-538.61 -294.81,-937.65 -423.86,-1477.94 -1070.1,-16.5 -2450.16,-206.26 -3432.68,157.83z"/>
  <path class="fil0" d="M24986.16 40343.09c1049.51,-33.98 3868.44,592.69 4147.76,-2682.92 178.15,-2089.04 -552.19,-3143.23 -946.11,-4143 -185.82,-471.65 -245.1,-952.28 -427.6,-1445.94 -1396.57,-94.5 -1609.22,763.2 -2631.42,1430.48 -759.94,496.09 -582.13,334.41 -1085.1,1028.18l-5855.76 4838.58c-586.73,514.65 -481.68,700.28 -159.81,1485.01 103.04,251.2 49.74,147.68 128.3,401.96l139.86 412.81c87.43,217.41 222.05,519.63 316.78,746.14 409.86,980.2 901.27,2170.17 2087.09,2309.59 1538.27,180.88 2426.44,-360.38 3248.62,-1049.29 1014,-849.66 913.47,-1987.69 1037.39,-3331.6z"/>
  <path class="fil7" d="M86069.8 42383.06c-469.22,-360.27 -141.14,-658.33 -37.73,-1297.88 89.75,-554.96 214.38,-1135.63 275.57,-1653.95 -705.94,295.63 -768.06,2054.57 -1389.83,3683.78 -1000.67,2622.14 -2051.01,4545.38 -3906.84,6526.1 -1215.92,1297.77 -1505.11,1499.91 -3796.48,1506.23 50.23,726.15 127.67,1455.33 164.2,2102.55 70.09,1240.61 -721.7,2595.19 3170.47,1469.1 861.93,-249.37 1213.41,-740.52 2190.69,-1231.86 1602.38,-805.68 3576.59,-4131.85 4488.15,-5949.76 1224.82,-2442.68 1248.62,-2362.78 2003.18,-5006.18 221.3,-775.36 790.6,-2280.28 271.98,-3026.72 -820.95,-524.23 -1021.79,738.2 -1268.58,1388.45 -164.3,432.77 -304.65,693.25 -399.75,1051.13 -174.67,657.58 27.73,724.35 -444.7,995.47 -354.09,-387.33 -269.25,-478.09 -66.36,-966.73l745.28 -2182.41c134.51,-461.96 412.14,-825.03 57.78,-1041.96 -732.81,-448.56 -1279.42,954.15 -1374,1447.06 -117.63,612.97 -215.84,1963.84 -683.03,2187.58z"/>
  <path class="fil1" d="M47155.72 63760.79c-5.24,1707.4 404.21,2488 591.42,3897.6 103.11,776.3 318.65,3535.72 512.44,3976.68l2160.41 -158.05c696.92,-187.66 1467.94,-314.91 2147.01,-493.92 683.14,-180.1 1296.53,-453.01 2013.43,-602.31 2508.7,-522.47 2475.17,62.62 2297.43,-1165.57l-415.58 -2945.81c-245.82,-2014.89 301.05,-3556.71 -1140.35,-3424.71 -2735.96,250.57 -4950.56,931.7 -8166.21,916.09z"/>
  <path class="fil0" d="M41777.49 42100.12c79.72,1272.42 237.51,2477.97 554.81,3638.23 776.16,1.12 1385.76,-185.82 2138.26,-317.98 1803.54,-316.7 9408.42,-1131.21 10968.85,-1146.41 1614.2,-15.72 2843.37,-376.74 4487.96,-375.84 1488.68,0.83 1547.25,-310.56 1272.99,-1832.59 -292.97,-1626.1 -236.09,-1354.35 -1898.12,-1437.74 -1701.67,-85.37 -4236.27,192.19 -6111.34,171.38 -776.75,-8.61 -829.64,122.98 -1389.2,197.95 -568.66,76.2 -545,-177.59 -1325.72,11.98 -1238.71,300.79 -4815.15,510.68 -5737.38,740.22 -564.16,140.42 -2272.2,322.84 -2961.11,350.8z"/>
  <path class="fil6" d="M65922.84 62362.98c-1028.48,287.14 -1854.67,858.94 -2468.02,1546.21 -1615.7,1810.35 -833,4677.56 472.03,5412.99 373.89,210.71 1031.1,433.66 1374.63,576.6 1724.21,717.46 3178.64,42.92 4281.41,-1313.08 698.19,-858.56 883.79,-1680.56 858.94,-3065.64 -40.46,-2257.68 -2567.65,-3701.93 -4518.99,-3157.08z"/>
  <path class="fil9" d="M65840.2 63150.21c-1809.08,666.12 -2893.03,1533.26 -2652.08,3831.02 236.84,2258.5 3103.41,2640.48 3962.35,2489.2 1376.09,-242.34 3094.12,-2001.27 2506.19,-3898.87 -169.02,-545.6 -669.71,-1083.54 -879.9,-1515.36 -89.26,-183.39 -149.93,-402.6 -256.6,-529.93 -458.81,-547.81 -1870.54,-674.12 -2679.96,-376.06z"/>
  <path class="fil0" d="M60881.45 56944.67c440.43,535.31 508.81,385.79 1192,512.18 1528.5,282.69 994.16,-801.82 4588.3,-688.61 2656.57,83.65 1847.75,-459.67 -185.67,-4004.86 -272.62,-475.28 -1114.83,-1965.68 -1360.68,-2188.52 -359.52,-325.94 -1040.2,-368.91 -1627.01,-240.42 -683.11,149.52 -395.59,457.46 -665.44,1194.35 -306.79,837.72 -875.59,1749.21 -1054.01,2656.05 -157.22,799.17 -255.51,743.33 -444.47,1363.78 -316.52,1039.23 -456.64,858.91 -443.02,1396.05z"/>
  <path class="fil0" d="M70537.6 57010.84c-518.17,1024.03 -1693.47,1988.36 -904.11,4080.62 379.32,1005.38 1271.87,2022.64 2548.93,1744.78 646.7,-140.72 100.64,-229.31 940.27,-452.63 1638.98,-435.87 2075.53,-2127.37 1667.05,-3627.68 -549.01,-2016.36 -2175.15,-1693.74 -4252.14,-1745.09z"/>
  <path class="fil6" d="M68322.4 40096.56c-729.1,477.9 -1609.19,1224.37 -1230.43,2540.4 314.42,1092.52 1533.4,1559.98 2618.43,1117.3 2362.36,-963.77 792.47,-5086.87 -1388,-3657.7z"/>
  <path class="fil10" d="M72041.03 57813.49c-2231.07,1370.82 -382.13,4788.54 1336.8,3745.76 2138.89,-1297.54 390.21,-4806.88 -1336.8,-3745.76z"/>
  <path class="fil11" d="M63004.66 56368.71l4250.41 -673.9 -2310.45 -4124.29c-595.19,808.53 -1801.11,3630.34 -1939.96,4798.19z"/>
  <path class="fil6" d="M40947.78 14948.82c-2992.06,1133.76 -1181.1,3484.07 597.93,3149.63 2784.57,-523.56 1187.51,-3826.19 -597.93,-3149.63z"/>
  <path class="fil6" d="M57456.51 15094.34c-690.93,341.14 -1288.03,690.52 -1080.24,1827.65 123.39,675.24 1115.23,1213.89 1921.03,918.7 499.75,-183.09 1036,-1280.1 889.25,-1887.49 -133.72,-553.5 -986.97,-1225.79 -1730.04,-858.86z"/>
  <path class="fil12" d="M68781.74 40556.8c-1741.35,778.13 -1445.04,3408.8 587,2597.77 1787.52,-713.46 1011.78,-3312.17 -587,-2597.77z"/>
  <path class="fil6" d="M19073.03 32718.75c-1011.82,572.92 176.77,2995.43 1807.07,2085.51 677.9,-378.38 614.54,-1290.61 249.29,-1777.34 -322.35,-429.58 -1447.24,-653.06 -2056.36,-308.17z"/>
  <path class="fil6" d="M17708.8 20241.16c-695.46,273.1 -919.39,863.95 -480.56,1644.48 320.52,570.12 683.11,1139 1620.42,712.64 1322.35,-601.48 652.64,-3061.08 -1139.86,-2357.12z"/>
  <path class="fil6" d="M14831.71 31505.98c-1657.88,901 10.33,2981.69 1180.92,2256.78 1468.28,-909.32 280.96,-3051.24 -1180.92,-2256.78z"/>
  <path class="fil6" d="M24704.45 27383.45c-1489.09,843.63 -1404.69,2659.79 635.65,2428.42 1726.97,-195.82 578.54,-3116.32 -635.65,-2428.42z"/>
  <path class="fil6" d="M22750 20939.5c-456.19,286.39 -1020.7,691.15 -451.89,1538.53 1050.19,1564.61 2541.97,97.27 2007.41,-1086.72 -209.62,-464.35 -1018.37,-788.99 -1555.52,-451.81z"/>
  <path class="fil6" d="M14146.8 26098.03c-294.88,406.79 -778.47,747.86 -451.25,1557.81 590.78,1462.29 2778.28,587.93 1993.08,-940.72 -292.38,-569.18 -753.14,-628.2 -1541.83,-617.09z"/>
  <path class="fil6" d="M19315.82 26305.71c-1494.14,424.94 -790.04,2640.71 778.47,2149.71 1517.27,-474.95 413.26,-2488.64 -778.47,-2149.71z"/>
  <path class="fil13 str0" d="M26960.89 35621.66c270.16,400.26 149.43,1055.11 -311.89,1549.24 -514.16,550.74 -1256.61,693.19 -1658.29,318.18 -35.93,-33.54 -67.85,-70.14 -95.94,-109.28l2066.12 -1758.14z"/>
  <path class="fil13 str0" d="M23017.44 38727.25c155.25,740.02 -237.83,1800.14 -960.14,2501 -805.05,781.15 -1714.08,820.09 -2030.36,86.99 -28.29,-65.56 -50.79,-135.16 -67.89,-207.97l3058.39 -2380.02z"/>
  <path class="fil14 str1" d="M47332.35 21120.13c915.55,217.99 1831.11,435.98 2931.95,479.58 1100.84,43.6 2386.98,-87.2 3215.33,-337.88 828.36,-250.69 1198.95,-621.27 1569.53,-991.85"/>
 </g>
</svg>
